<svg width="23" height="23" viewBox="0 0 23 23" fill="none" xmlns="http://www.w3.org/2000/svg">
<path d="M22.2861 9.2956H21.4V9.24995H11.5V13.65H17.7167C16.8097 16.2113 14.3727 18.05 11.5 18.05C7.85515 18.05 4.9 15.0948 4.9 11.45C4.9 7.8051 7.85515 4.84995 11.5 4.84995C13.1825 4.84995 14.7131 5.48465 15.8786 6.5214L18.9899 3.41005C17.0253 1.5791 14.3974 0.449951 11.5 0.449951C5.42525 0.449951 0.5 5.3752 0.5 11.45C0.5 17.5247 5.42525 22.45 11.5 22.45C17.5748 22.45 22.5 17.5247 22.5 11.45C22.5 10.7124 22.4241 9.99245 22.2861 9.2956Z" fill="#FFC107"/>
<path d="M1.76801 6.33L5.38205 8.98045C6.35995 6.55935 8.72825 4.84995 11.4997 4.84995C13.1822 4.84995 14.7128 5.48465 15.8783 6.5214L18.9896 3.41005C17.025 1.5791 14.3971 0.449951 11.4997 0.449951C7.2746 0.449951 3.61051 2.8353 1.76801 6.33Z" fill="#FF3D00"/>
<path d="M11.5 22.45C14.3413 22.45 16.923 21.3626 18.875 19.5944L15.4705 16.7135C14.3661 17.55 12.9933 18.05 11.5 18.05C8.63893 18.05 6.20957 16.2256 5.29437 13.6797L1.70728 16.4434C3.52778 20.0058 7.22487 22.45 11.5 22.45Z" fill="#4CAF50"/>
<path d="M22.286 9.29565H21.4V9.25H11.5V13.65H17.7167C17.2811 14.8804 16.4896 15.9413 15.4688 16.714C15.4693 16.7135 15.4699 16.7135 15.4704 16.713L18.875 19.5939C18.6341 19.8127 22.5 16.95 22.5 11.45C22.5 10.7125 22.4241 9.9925 22.286 9.29565Z" fill="#1976D2"/>
</svg>
